{"title":"Ghost in the Shell 2: Innocence [Blu-ray.1080p.H264.AC3.JAP-ENG]","uid":7102983,"size":19926699935,"categoryP":"video","categoryS":"hd___movies","magnet":"?xt=urn:btih:0d70674682eedb2b70737eac9119bbe4cef5bce2&amp;dn=Ghost+in+the+Shell+2%3A+Innocence+%5BBlu-ray.1080p.H264.AC3.JAP-ENG%5D&amp;tr=udp%3A%2F%2Ftracker.openbittorrent.com%3A80&amp;tr=udp%3A%2F%2Fopen.demonii.com%3A1337&amp;tr=udp%3A%2F%2Ftracker.coppersurfer.tk%3A6969&amp;tr=udp%3A%2F%2Fexodus.desync.com%3A6969","seeders":2,"leechers":0,"uploader":null,"files":2,"time":1331758169,"description":"Ghost_in_the_Shell_-_Innocence[Blu-ray.1080p.H264.AC3.JAP-ENG].mkv\n\nFormat : Matroska\nFormat version : Version 2\nFile size : 18.6 GiB\nDuration : 1h 40mn\nOverall bit rate mode : Variable\nOverall bit rate : 26.4 Mbps\nEncoded date : UTC 2012-03-11 12:53:45\nWriting application : mkvmerge v5.3.0 ('I could have danced') built on Feb 9 2012 10:38:07\nWriting library : libebml v1.2.3 + libmatroska v1.3.0\n\nVideo\nID : 1\nFormat : AVC\nFormat/Info : Advanced Video Codec\nFormat profile : &lt;a class=&quot;__cf_email__&quot; href=&quot;/cdn-cgi/l/email-protection&quot; data-cfemail=&quot;226a4b454a626e160c13&quot;&gt;[email&amp;#160;protected]&lt;/a&gt;&lt;script cf-hash='f9e31' type=&quot;text/javascript&quot;&gt;\n/* &lt;![CDATA[ */!function(){try{var t=&quot;currentScript&quot;in document?document.currentScript:function(){for(var t=document.getElementsByTagName(&quot;script&quot;),e=t.length;e--;)if(t[e].getAttribute(&quot;cf-hash&quot;))return t[e]}();if(t&amp;&amp;t.previousSibling){var e,r,n,i,c=t.previousSibling,a=c.getAttribute(&quot;data-cfemail&quot;);if(a){for(e=&quot;&quot;,r=parseInt(a.substr(0,2),16),n=2;a.length-n;n+=2)i=parseInt(a.substr(n,2),16)^r,e+=String.fromCharCode(i);e=document.createTextNode(e),c.parentNode.replaceChild(e,c)}}}catch(u){}}();/* ]]&gt; */&lt;/script&gt;\nFormat settings, CABAC : Yes\nFormat settings, ReFrames : 3 frames\nFormat settings, GOP : M=3, N=12\nMuxing mode : Header stripping\nCodec ID : V_MPEG4/ISO/AVC\nDuration : 1h 40mn\nBit rate mode : Variable\nBit rate : 23.8 Mbps\nMaximum bit rate : 36.0 Mbps\nWidth : 1 920 pixels\nHeight : 1 080 pixels\nDisplay aspect ratio : 16:9\nFrame rate : 23.976 fps\nStandard : NTSC\nColor space : YUV\nChroma subsampling : 4:2:0\nBit depth : 8 bits\nScan type : Progressive\nBits/(Pixel*Frame) : 0.479\nStream size : 16.7 GiB (90%)\n\nAudio #1\nID : 2\nFormat : AC-3\nFormat/Info : Audio Coding 3\nMode extension : CM (complete main)\nMuxing mode : Header stripping\nCodec ID : A_AC3\nDuration : 1h 40mn\nBit rate mode : Constant\nBit rate : 640 Kbps\nChannel(s) : 6 channels\nChannel positions : Front: L C R, Side: L R, LFE\nSampling rate : 48.0 KHz\nBit depth : 16 bits\nCompression mode : Lossy\nStream size : 460 MiB (2%)\nTitle : English I\nLanguage : English\n\nAudio #2\nID : 3\nFormat : AC-3\nFormat/Info : Audio Coding 3\nMode extension : CM (complete main)\nMuxing mode : Header stripping\nCodec ID : A_AC3\nDuration : 1h 40mn\nBit rate mode : Constant\nBit rate : 640 Kbps\nChannel(s) : 6 channels\nChannel positions : Front: L C R, Side: L R, LFE\nSampling rate : 48.0 KHz\nBit depth : 16 bits\nCompression mode : Lossy\nStream size : 460 MiB (2%)\nTitle : English II (SAC cast)\nLanguage : English\n\nAudio #3\nID : 4\nFormat : AC-3\nFormat/Info : Audio Coding 3\nMode extension : CM (complete main)\nMuxing mode : Header stripping\nCodec ID : A_AC3\nDuration : 1h 40mn\nBit rate mode : Constant\nBit rate : 640 Kbps\nChannel(s) : 6 channels\nChannel positions : Front: L C R, Side: L R, LFE\nSampling rate : 48.0 KHz\nBit depth : 16 bits\nCompression mode : Lossy\nStream size : 460 MiB (2%)\nTitle : Japanese\nLanguage : Japanese\n\nAudio #4\nID : 5\nFormat : AC-3\nFormat/Info : Audio Coding 3\nMode extension : CM (complete main)\nMuxing mode : Header stripping\nCodec ID : A_AC3\nDuration : 1h 40mn\nBit rate mode : Constant\nBit rate : 192 Kbps\nChannel(s) : 2 channels\nChannel positions : Front: L R\nSampling rate : 48.0 KHz\nBit depth : 16 bits\nCompression mode : Lossy\nStream size : 138 MiB (1%)\nTitle : Commentary\nLanguage : Japanese\n\nText #1\nID : 6\nFormat : PGS\nMuxing mode : zlib\nCodec ID : S_HDMV/PGS\nCodec ID/Info : The same subtitle format used on BDs/HD-DVDs\nTitle : English\nLanguage : English\n\nText #2\nID : 7\nFormat : PGS\nMuxing mode : zlib\nCodec ID : S_HDMV/PGS\nCodec ID/Info : The same subtitle format used on BDs/HD-DVDs\nTitle : Japanese Commentary\nLanguage : Japanese","torrent":{"xt":"urn:btih:0d70674682eedb2b70737eac9119bbe4cef5bce2","amp;dn":"Ghost+in+the+Shell+2%3A+Innocence+%5BBlu-ray.1080p.H264.AC3.JAP-ENG%5D","amp;tr":["udp%3A%2F%2Ftracker.openbittorrent.com%3A80","udp%3A%2F%2Fopen.demonii.com%3A1337","udp%3A%2F%2Ftracker.coppersurfer.tk%3A6969","udp%3A%2F%2Fexodus.desync.com%3A6969"],"infoHash":"0d70674682eedb2b70737eac9119bbe4cef5bce2","infoHashBuffer":{"type":"Buffer","data":[13,112,103,70,130,238,219,43,112,115,126,172,145,25,187,228,206,245,188,226]},"announce":[],"urlList":[]}}